<svg xmlns="http://www.w3.org/2000/svg" viewBox="0 0 37 37" shape-rendering="geometricPrecision">
<g fill="#F4F1EA">
<circle cx="13.5" cy="4.5" r="0.46"/>
<circle cx="15.5" cy="4.5" r="0.46"/>
<circle cx="16.5" cy="4.5" r="0.46"/>
<circle cx="17.5" cy="4.5" r="0.46"/>
<circle cx="18.5" cy="4.5" r="0.46"/>
<circle cx="20.5" cy="4.5" r="0.46"/>
<circle cx="23.5" cy="4.5" r="0.46"/>
<circle cx="24.5" cy="4.5" r="0.46"/>
<circle cx="12.5" cy="5.5" r="0.46"/>
<circle cx="14.5" cy="5.5" r="0.46"/>
<circle cx="16.5" cy="5.5" r="0.46"/>
<circle cx="17.5" cy="5.5" r="0.46"/>
<circle cx="19.5" cy="5.5" r="0.46"/>
<circle cx="22.5" cy="5.5" r="0.46"/>
<circle cx="23.5" cy="5.5" r="0.46"/>
<circle cx="14.5" cy="6.5" r="0.46"/>
<circle cx="15.5" cy="6.5" r="0.46"/>
<circle cx="16.5" cy="6.5" r="0.46"/>
<circle cx="17.5" cy="6.5" r="0.46"/>
<circle cx="18.5" cy="6.5" r="0.46"/>
<circle cx="21.5" cy="6.5" r="0.46"/>
<circle cx="22.5" cy="6.5" r="0.46"/>
<circle cx="13.5" cy="7.5" r="0.46"/>
<circle cx="15.5" cy="7.5" r="0.46"/>
<circle cx="16.5" cy="7.5" r="0.46"/>
<circle cx="19.5" cy="7.5" r="0.46"/>
<circle cx="22.5" cy="7.5" r="0.46"/>
<circle cx="24.5" cy="7.5" r="0.46"/>
<circle cx="13.5" cy="8.5" r="0.46"/>
<circle cx="14.5" cy="8.5" r="0.46"/>
<circle cx="15.5" cy="8.5" r="0.46"/>
<circle cx="16.5" cy="8.5" r="0.46"/>
<circle cx="20.5" cy="8.5" r="0.46"/>
<circle cx="21.5" cy="8.5" r="0.46"/>
<circle cx="23.5" cy="8.5" r="0.46"/>
<circle cx="24.5" cy="8.5" r="0.46"/>
<circle cx="12.5" cy="9.5" r="0.46"/>
<circle cx="13.5" cy="9.5" r="0.46"/>
<circle cx="14.5" cy="9.5" r="0.46"/>
<circle cx="15.5" cy="9.5" r="0.46"/>
<circle cx="17.5" cy="9.5" r="0.46"/>
<circle cx="18.5" cy="9.5" r="0.46"/>
<circle cx="20.5" cy="9.5" r="0.46"/>
<circle cx="21.5" cy="9.5" r="0.46"/>
<circle cx="23.5" cy="9.5" r="0.46"/>
<circle cx="24.5" cy="9.5" r="0.46"/>
<circle cx="12.5" cy="10.5" r="0.46"/>
<circle cx="14.5" cy="10.5" r="0.46"/>
<circle cx="16.5" cy="10.5" r="0.46"/>
<circle cx="18.5" cy="10.5" r="0.46"/>
<circle cx="20.5" cy="10.5" r="0.46"/>
<circle cx="22.5" cy="10.5" r="0.46"/>
<circle cx="24.5" cy="10.5" r="0.46"/>
<circle cx="12.5" cy="11.5" r="0.46"/>
<circle cx="14.5" cy="11.5" r="0.46"/>
<circle cx="15.5" cy="11.5" r="0.46"/>
<circle cx="18.5" cy="11.5" r="0.46"/>
<circle cx="20.5" cy="11.5" r="0.46"/>
<circle cx="23.5" cy="11.5" r="0.46"/>
<circle cx="24.5" cy="11.5" r="0.46"/>
<circle cx="8.5" cy="12.5" r="0.46"/>
<circle cx="9.5" cy="12.5" r="0.46"/>
<circle cx="10.5" cy="12.5" r="0.46"/>
<circle cx="11.5" cy="12.5" r="0.46"/>
<circle cx="13.5" cy="12.5" r="0.46"/>
<circle cx="14.5" cy="12.5" r="0.46"/>
<circle cx="16.5" cy="12.5" r="0.46"/>
<circle cx="17.5" cy="12.5" r="0.46"/>
<circle cx="18.5" cy="12.5" r="0.46"/>
<circle cx="19.5" cy="12.5" r="0.46"/>
<circle cx="20.5" cy="12.5" r="0.46"/>
<circle cx="23.5" cy="12.5" r="0.46"/>
<circle cx="24.5" cy="12.5" r="0.46"/>
<circle cx="26.5" cy="12.5" r="0.46"/>
<circle cx="27.5" cy="12.5" r="0.46"/>
<circle cx="31.5" cy="12.5" r="0.46"/>
<circle cx="6.5" cy="13.5" r="0.46"/>
<circle cx="7.5" cy="13.5" r="0.46"/>
<circle cx="9.5" cy="13.5" r="0.46"/>
<circle cx="12.5" cy="13.5" r="0.46"/>
<circle cx="17.5" cy="13.5" r="0.46"/>
<circle cx="19.5" cy="13.5" r="0.46"/>
<circle cx="22.5" cy="13.5" r="0.46"/>
<circle cx="23.5" cy="13.5" r="0.46"/>
<circle cx="28.5" cy="13.5" r="0.46"/>
<circle cx="32.5" cy="13.5" r="0.46"/>
<circle cx="4.5" cy="14.5" r="0.46"/>
<circle cx="6.5" cy="14.5" r="0.46"/>
<circle cx="8.5" cy="14.5" r="0.46"/>
<circle cx="10.5" cy="14.5" r="0.46"/>
<circle cx="11.5" cy="14.5" r="0.46"/>
<circle cx="15.5" cy="14.5" r="0.46"/>
<circle cx="17.5" cy="14.5" r="0.46"/>
<circle cx="23.5" cy="14.5" r="0.46"/>
<circle cx="26.5" cy="14.5" r="0.46"/>
<circle cx="27.5" cy="14.5" r="0.46"/>
<circle cx="28.5" cy="14.5" r="0.46"/>
<circle cx="30.5" cy="14.5" r="0.46"/>
<circle cx="31.5" cy="14.5" r="0.46"/>
<circle cx="8.5" cy="15.5" r="0.46"/>
<circle cx="9.5" cy="15.5" r="0.46"/>
<circle cx="12.5" cy="15.5" r="0.46"/>
<circle cx="14.5" cy="15.5" r="0.46"/>
<circle cx="22.5" cy="15.5" r="0.46"/>
<circle cx="23.5" cy="15.5" r="0.46"/>
<circle cx="24.5" cy="15.5" r="0.46"/>
<circle cx="26.5" cy="15.5" r="0.46"/>
<circle cx="27.5" cy="15.5" r="0.46"/>
<circle cx="29.5" cy="15.5" r="0.46"/>
<circle cx="30.5" cy="15.5" r="0.46"/>
<circle cx="32.5" cy="15.5" r="0.46"/>
<circle cx="4.5" cy="16.5" r="0.46"/>
<circle cx="5.5" cy="16.5" r="0.46"/>
<circle cx="7.5" cy="16.5" r="0.46"/>
<circle cx="9.5" cy="16.5" r="0.46"/>
<circle cx="10.5" cy="16.5" r="0.46"/>
<circle cx="11.5" cy="16.5" r="0.46"/>
<circle cx="12.5" cy="16.5" r="0.46"/>
<circle cx="14.5" cy="16.5" r="0.46"/>
<circle cx="24.5" cy="16.5" r="0.46"/>
<circle cx="27.5" cy="16.5" r="0.46"/>
<circle cx="28.5" cy="16.5" r="0.46"/>
<circle cx="29.5" cy="16.5" r="0.46"/>
<circle cx="30.5" cy="16.5" r="0.46"/>
<circle cx="5.5" cy="17.5" r="0.46"/>
<circle cx="6.5" cy="17.5" r="0.46"/>
<circle cx="7.5" cy="17.5" r="0.46"/>
<circle cx="11.5" cy="17.5" r="0.46"/>
<circle cx="12.5" cy="17.5" r="0.46"/>
<circle cx="13.5" cy="17.5" r="0.46"/>
<circle cx="23.5" cy="17.5" r="0.46"/>
<circle cx="24.5" cy="17.5" r="0.46"/>
<circle cx="27.5" cy="17.5" r="0.46"/>
<circle cx="29.5" cy="17.5" r="0.46"/>
<circle cx="5.5" cy="18.5" r="0.46"/>
<circle cx="6.5" cy="18.5" r="0.46"/>
<circle cx="9.5" cy="18.5" r="0.46"/>
<circle cx="10.5" cy="18.5" r="0.46"/>
<circle cx="11.5" cy="18.5" r="0.46"/>
<circle cx="12.5" cy="18.5" r="0.46"/>
<circle cx="22.5" cy="18.5" r="0.46"/>
<circle cx="23.5" cy="18.5" r="0.46"/>
<circle cx="24.5" cy="18.5" r="0.46"/>
<circle cx="25.5" cy="18.5" r="0.46"/>
<circle cx="26.5" cy="18.5" r="0.46"/>
<circle cx="30.5" cy="18.5" r="0.46"/>
<circle cx="31.5" cy="18.5" r="0.46"/>
<circle cx="7.5" cy="19.5" r="0.46"/>
<circle cx="8.5" cy="19.5" r="0.46"/>
<circle cx="11.5" cy="19.5" r="0.46"/>
<circle cx="13.5" cy="19.5" r="0.46"/>
<circle cx="22.5" cy="19.5" r="0.46"/>
<circle cx="24.5" cy="19.5" r="0.46"/>
<circle cx="25.5" cy="19.5" r="0.46"/>
<circle cx="26.5" cy="19.5" r="0.46"/>
<circle cx="28.5" cy="19.5" r="0.46"/>
<circle cx="29.5" cy="19.5" r="0.46"/>
<circle cx="31.5" cy="19.5" r="0.46"/>
<circle cx="6.5" cy="20.5" r="0.46"/>
<circle cx="8.5" cy="20.5" r="0.46"/>
<circle cx="9.5" cy="20.5" r="0.46"/>
<circle cx="10.5" cy="20.5" r="0.46"/>
<circle cx="11.5" cy="20.5" r="0.46"/>
<circle cx="13.5" cy="20.5" r="0.46"/>
<circle cx="23.5" cy="20.5" r="0.46"/>
<circle cx="28.5" cy="20.5" r="0.46"/>
<circle cx="29.5" cy="20.5" r="0.46"/>
<circle cx="31.5" cy="20.5" r="0.46"/>
<circle cx="4.5" cy="21.5" r="0.46"/>
<circle cx="5.5" cy="21.5" r="0.46"/>
<circle cx="6.5" cy="21.5" r="0.46"/>
<circle cx="8.5" cy="21.5" r="0.46"/>
<circle cx="9.5" cy="21.5" r="0.46"/>
<circle cx="12.5" cy="21.5" r="0.46"/>
<circle cx="13.5" cy="21.5" r="0.46"/>
<circle cx="14.5" cy="21.5" r="0.46"/>
<circle cx="22.5" cy="21.5" r="0.46"/>
<circle cx="23.5" cy="21.5" r="0.46"/>
<circle cx="24.5" cy="21.5" r="0.46"/>
<circle cx="27.5" cy="21.5" r="0.46"/>
<circle cx="28.5" cy="21.5" r="0.46"/>
<circle cx="30.5" cy="21.5" r="0.46"/>
<circle cx="31.5" cy="21.5" r="0.46"/>
<circle cx="32.5" cy="21.5" r="0.46"/>
<circle cx="8.5" cy="22.5" r="0.46"/>
<circle cx="9.5" cy="22.5" r="0.46"/>
<circle cx="10.5" cy="22.5" r="0.46"/>
<circle cx="13.5" cy="22.5" r="0.46"/>
<circle cx="14.5" cy="22.5" r="0.46"/>
<circle cx="15.5" cy="22.5" r="0.46"/>
<circle cx="16.5" cy="22.5" r="0.46"/>
<circle cx="20.5" cy="22.5" r="0.46"/>
<circle cx="24.5" cy="22.5" r="0.46"/>
<circle cx="25.5" cy="22.5" r="0.46"/>
<circle cx="28.5" cy="22.5" r="0.46"/>
<circle cx="30.5" cy="22.5" r="0.46"/>
<circle cx="31.5" cy="22.5" r="0.46"/>
<circle cx="32.5" cy="22.5" r="0.46"/>
<circle cx="8.5" cy="23.5" r="0.46"/>
<circle cx="9.5" cy="23.5" r="0.46"/>
<circle cx="14.5" cy="23.5" r="0.46"/>
<circle cx="16.5" cy="23.5" r="0.46"/>
<circle cx="19.5" cy="23.5" r="0.46"/>
<circle cx="20.5" cy="23.5" r="0.46"/>
<circle cx="22.5" cy="23.5" r="0.46"/>
<circle cx="25.5" cy="23.5" r="0.46"/>
<circle cx="26.5" cy="23.5" r="0.46"/>
<circle cx="27.5" cy="23.5" r="0.46"/>
<circle cx="28.5" cy="23.5" r="0.46"/>
<circle cx="29.5" cy="23.5" r="0.46"/>
<circle cx="30.5" cy="23.5" r="0.46"/>
<circle cx="32.5" cy="23.5" r="0.46"/>
<circle cx="4.5" cy="24.5" r="0.46"/>
<circle cx="5.5" cy="24.5" r="0.46"/>
<circle cx="7.5" cy="24.5" r="0.46"/>
<circle cx="9.5" cy="24.5" r="0.46"/>
<circle cx="10.5" cy="24.5" r="0.46"/>
<circle cx="11.5" cy="24.5" r="0.46"/>
<circle cx="12.5" cy="24.5" r="0.46"/>
<circle cx="13.5" cy="24.5" r="0.46"/>
<circle cx="15.5" cy="24.5" r="0.46"/>
<circle cx="17.5" cy="24.5" r="0.46"/>
<circle cx="18.5" cy="24.5" r="0.46"/>
<circle cx="23.5" cy="24.5" r="0.46"/>
<circle cx="24.5" cy="24.5" r="0.46"/>
<circle cx="25.5" cy="24.5" r="0.46"/>
<circle cx="26.5" cy="24.5" r="0.46"/>
<circle cx="27.5" cy="24.5" r="0.46"/>
<circle cx="28.5" cy="24.5" r="0.46"/>
<circle cx="30.5" cy="24.5" r="0.46"/>
<circle cx="31.5" cy="24.5" r="0.46"/>
<circle cx="32.5" cy="24.5" r="0.46"/>
<circle cx="12.5" cy="25.5" r="0.46"/>
<circle cx="16.5" cy="25.5" r="0.46"/>
<circle cx="17.5" cy="25.5" r="0.46"/>
<circle cx="19.5" cy="25.5" r="0.46"/>
<circle cx="24.5" cy="25.5" r="0.46"/>
<circle cx="28.5" cy="25.5" r="0.46"/>
<circle cx="30.5" cy="25.5" r="0.46"/>
<circle cx="32.5" cy="25.5" r="0.46"/>
<circle cx="12.5" cy="26.5" r="0.46"/>
<circle cx="13.5" cy="26.5" r="0.46"/>
<circle cx="16.5" cy="26.5" r="0.46"/>
<circle cx="18.5" cy="26.5" r="0.46"/>
<circle cx="19.5" cy="26.5" r="0.46"/>
<circle cx="22.5" cy="26.5" r="0.46"/>
<circle cx="23.5" cy="26.5" r="0.46"/>
<circle cx="24.5" cy="26.5" r="0.46"/>
<circle cx="26.5" cy="26.5" r="0.46"/>
<circle cx="28.5" cy="26.5" r="0.46"/>
<circle cx="29.5" cy="26.5" r="0.46"/>
<circle cx="31.5" cy="26.5" r="0.46"/>
<circle cx="32.5" cy="26.5" r="0.46"/>
<circle cx="12.5" cy="27.5" r="0.46"/>
<circle cx="13.5" cy="27.5" r="0.46"/>
<circle cx="14.5" cy="27.5" r="0.46"/>
<circle cx="16.5" cy="27.5" r="0.46"/>
<circle cx="21.5" cy="27.5" r="0.46"/>
<circle cx="22.5" cy="27.5" r="0.46"/>
<circle cx="23.5" cy="27.5" r="0.46"/>
<circle cx="24.5" cy="27.5" r="0.46"/>
<circle cx="28.5" cy="27.5" r="0.46"/>
<circle cx="29.5" cy="27.5" r="0.46"/>
<circle cx="12.5" cy="28.5" r="0.46"/>
<circle cx="13.5" cy="28.5" r="0.46"/>
<circle cx="14.5" cy="28.5" r="0.46"/>
<circle cx="15.5" cy="28.5" r="0.46"/>
<circle cx="16.5" cy="28.5" r="0.46"/>
<circle cx="18.5" cy="28.5" r="0.46"/>
<circle cx="24.5" cy="28.5" r="0.46"/>
<circle cx="25.5" cy="28.5" r="0.46"/>
<circle cx="26.5" cy="28.5" r="0.46"/>
<circle cx="27.5" cy="28.5" r="0.46"/>
<circle cx="28.5" cy="28.5" r="0.46"/>
<circle cx="29.5" cy="28.5" r="0.46"/>
<circle cx="30.5" cy="28.5" r="0.46"/>
<circle cx="31.5" cy="28.5" r="0.46"/>
<circle cx="15.5" cy="29.5" r="0.46"/>
<circle cx="16.5" cy="29.5" r="0.46"/>
<circle cx="17.5" cy="29.5" r="0.46"/>
<circle cx="19.5" cy="29.5" r="0.46"/>
<circle cx="21.5" cy="29.5" r="0.46"/>
<circle cx="27.5" cy="29.5" r="0.46"/>
<circle cx="29.5" cy="29.5" r="0.46"/>
<circle cx="30.5" cy="29.5" r="0.46"/>
<circle cx="14.5" cy="30.5" r="0.46"/>
<circle cx="15.5" cy="30.5" r="0.46"/>
<circle cx="17.5" cy="30.5" r="0.46"/>
<circle cx="24.5" cy="30.5" r="0.46"/>
<circle cx="27.5" cy="30.5" r="0.46"/>
<circle cx="31.5" cy="30.5" r="0.46"/>
<circle cx="32.5" cy="30.5" r="0.46"/>
<circle cx="13.5" cy="31.5" r="0.46"/>
<circle cx="16.5" cy="31.5" r="0.46"/>
<circle cx="17.5" cy="31.5" r="0.46"/>
<circle cx="18.5" cy="31.5" r="0.46"/>
<circle cx="19.5" cy="31.5" r="0.46"/>
<circle cx="22.5" cy="31.5" r="0.46"/>
<circle cx="27.5" cy="31.5" r="0.46"/>
<circle cx="28.5" cy="31.5" r="0.46"/>
<circle cx="29.5" cy="31.5" r="0.46"/>
<circle cx="30.5" cy="31.5" r="0.46"/>
<circle cx="31.5" cy="31.5" r="0.46"/>
<circle cx="13.5" cy="32.5" r="0.46"/>
<circle cx="17.5" cy="32.5" r="0.46"/>
<circle cx="18.5" cy="32.5" r="0.46"/>
<circle cx="21.5" cy="32.5" r="0.46"/>
<circle cx="26.5" cy="32.5" r="0.46"/>
<circle cx="27.5" cy="32.5" r="0.46"/>
<circle cx="28.5" cy="32.5" r="0.46"/>
<circle cx="29.5" cy="32.5" r="0.46"/>
<circle cx="30.5" cy="32.5" r="0.46"/>
</g>
<rect x="4.5" y="4.5" width="6" height="6" rx="1.9" fill="none" stroke="#F4F1EA" stroke-width="1"/><rect x="6" y="6" width="3" height="3" rx="0.95" fill="#7EA0FF"/>
<rect x="26.5" y="4.5" width="6" height="6" rx="1.9" fill="none" stroke="#F4F1EA" stroke-width="1"/><rect x="28" y="6" width="3" height="3" rx="0.95" fill="#7EA0FF"/>
<rect x="4.5" y="26.5" width="6" height="6" rx="1.9" fill="none" stroke="#F4F1EA" stroke-width="1"/><rect x="6" y="28" width="3" height="3" rx="0.95" fill="#7EA0FF"/>
<text x="18.5" y="18.5" text-anchor="middle" dominant-baseline="central" font-family="Fraunces, 'Source Serif 4', Georgia, serif" font-size="4.6" font-weight="500" letter-spacing="-0.1" fill="#F4F1EA">AT</text>
</svg>